<svg aria-hidden="true" style="position:absolute;width:0;height:0;overflow:hidden" xmlns="http://www.w3.org/2000/svg">
<defs>
  <symbol id="arrow"  viewBox="0 0 41 16">
  <path d="M40.707 8.707a1 1 0 0 0 0-1.414L34.343.929a1 1 0 1 0-1.414 1.414L38.586 8l-5.657 5.657a1 1 0 0 0 1.414 1.414l6.364-6.364ZM0 9h40V7H0v2Z" />
  </symbol>
  <symbol id="close" viewBox="0 0 24 24">
       <circle cx="15" cy="15" r="15" stroke="#fff" />
       <circle cx="15" cy="15" r="14.5" stroke="#000" stroke-opacity=".1"/>
       <path d="M21 10.108 19.892 9 15.5 13.392 11.108 9 10 10.108l4.392 4.392L10 18.892 11.108 20l4.392-4.392L19.892 20 21 18.892 16.608 14.5 21 10.108Z" fill="#000"/>
    </symbol>
</defs>  
</svg>
